<svg class="sidebar-icon svg-icon" focusable="false" height="24" width="24" viewBox="0 0 24 24" aria-hidden="true"><path fill-rule="evenodd" clip-rule="evenodd" d="M6.99994 6C6.99994 3.23858 9.23852 1 11.9999 1C14.7614 1 16.9999 3.23858 16.9999 6V12C16.9999 14.7614 14.7614 17 11.9999 17C9.23852 17 6.99994 14.7614 6.99994 12V11H10.5C10.7761 11 11 10.7761 11 10.5C11 10.2239 10.7761 10 10.5 10H6.99994V9H10.5C10.7761 9 11 8.77614 11 8.5C11 8.22386 10.7761 8 10.5 8H6.99994V7H10.5C10.7761 7 11 6.77614 11 6.5C11 6.22386 10.7761 6 10.5 6H6.99994ZM4 12H5C5 15.866 8.13401 19 12 19C15.866 19 19 15.866 19 12H20C20 16.2504 16.6854 19.7265 12.5 19.9846V22H15V23H12.5H11.5H9V22H11.5V19.9846C7.31464 19.7265 4 16.2504 4 12Z"></path></svg>