<svg class="sidebar-icon svg-icon" focusable="false" height="24" width="24" viewBox="0 0 24 24" aria-hidden="true"><path fill-rule="evenodd" clip-rule="evenodd" d="M9 7.83439V4.85792L20 3.16561V6V6.14208L9 7.83439ZM20 7.15385L9 8.84615V19C9 20.6569 7.433 22 5.5 22C3.567 22 2 20.6569 2 19C2 17.3431 3.567 16 5.5 16C6.47934 16 7.36474 16.3448 8 16.9004V9V8V7.98823V4L20 2.15385L21 2V3.01177V6V7V17C21 18.6569 19.433 20 17.5 20C15.567 20 14 18.6569 14 17C14 15.3431 15.567 14 17.5 14C18.4793 14 19.3647 14.3448 20 14.9004V7.15385ZM17.5 15C19.0309 15 20 16.0345 20 17C20 17.9655 19.0309 19 17.5 19C15.9691 19 15 17.9655 15 17C15 16.0345 15.9691 15 17.5 15ZM8 19C8 18.0345 7.03089 17 5.5 17C3.96911 17 3 18.0345 3 19C3 19.9655 3.96911 21 5.5 21C7.03089 21 8 19.9655 8 19Z"></path></svg>