<svg class="sidebar-icon svg-icon" focusable="false" height="24" width="24" viewBox="0 0 24 24" aria-hidden="true"><path fill-rule="evenodd" clip-rule="evenodd" d="M12 7.46288L11.2359 6.558C9.7386 4.78468 8.33252 4.12078 7.20792 4.02788C6.09058 3.93558 5.08089 4.39141 4.3149 5.20758C2.74171 6.88383 2.36714 9.87371 4.38121 11.9694C6.80604 14.4926 8.88419 16.5702 10.3554 18.0163C11.0468 18.6959 11.604 19.2359 12 19.617C12.396 19.2359 12.9532 18.6959 13.6446 18.0163C15.1151 16.5709 17.192 14.4946 19.6153 11.9731C21.6398 9.82166 21.2517 6.82926 19.6872 5.17261C18.9238 4.3642 17.9159 3.91515 16.7973 4.01348C15.6703 4.11254 14.2623 4.78367 12.7641 6.558L12 7.46288ZM12 21C12 21 8.52508 17.7245 3.6602 12.6624C-1.03385 7.77799 5.08675 -1.07997 11.3196 5.16957C11.5464 5.39701 11.7734 5.64447 12 5.91285C12.2266 5.64453 12.4535 5.39701 12.6803 5.16938C18.9131 -1.08685 25.0339 7.68217 20.3398 12.6624C15.4749 17.7245 12 21 12 21Z"></path></svg>