<svg class="sidebar-icon svg-icon" focusable="false" height="24" width="24" viewBox="0 0 24 24" aria-hidden="true"><path fill-rule="evenodd" clip-rule="evenodd" d="M15.9999 6C15.9999 3.79086 14.2091 2 11.9999 2C9.7908 2 7.99994 3.79086 7.99994 6H10.5C10.7761 6 11 6.22386 11 6.5C11 6.77614 10.7761 7 10.5 7H7.99994V8H10.5C10.7761 8 11 8.22386 11 8.5C11 8.77614 10.7761 9 10.5 9H7.99994V10H10.5C10.7761 10 11 10.2239 11 10.5C11 10.7761 10.7761 11 10.5 11H7.99994V12C7.99994 14.2091 9.7908 16 11.9999 16C14.2091 16 15.9999 14.2091 15.9999 12V6ZM11.9999 1C9.23852 1 6.99994 3.23858 6.99994 6V12C6.99994 14.7614 9.23852 17 11.9999 17C14.7614 17 16.9999 14.7614 16.9999 12V6C16.9999 3.23858 14.7614 1 11.9999 1ZM5 12H4C4 16.2504 7.31464 19.7265 11.5 19.9846V22H9V23H11.5H12.5H15V22H12.5V19.9846C16.6854 19.7265 20 16.2504 20 12H19C19 15.866 15.866 19 12 19C8.13401 19 5 15.866 5 12Z"></path></svg>