<svg class="sidebar-icon svg-icon" focusable="false" height="24" width="24" viewBox="0 0 24 24" aria-hidden="true"><path fill-rule="evenodd" clip-rule="evenodd" d="M11.381 20.4091C11.7828 20.7953 12 21 12 21C12 21 15.4749 17.7245 20.3398 12.6624C25.0339 7.68217 18.9131 -1.08686 12.6803 5.16938C12.6519 5.19783 12.6236 5.2266 12.5952 5.25567C12.3968 5.45921 12.1982 5.67807 12 5.91285C11.9858 5.89608 11.9717 5.87938 11.9575 5.86277C11.745 5.61361 11.5322 5.3828 11.3196 5.16957C5.08675 -1.07997 -1.03385 7.77799 3.6602 12.6624C3.96425 12.9787 4.26288 13.2882 4.55557 13.5902C7.77512 16.9129 10.2761 19.3471 11.381 20.4091Z"></path></svg>